<svg xmlns="http://www.w3.org/2000/svg" version="1.0" viewBox="1 1 49 49">
	<g>
		<path fill="#69BFDB" d="M12.281 43.321l34.243-12.463A22.32 22.32 0 0047.307 25C47.307 12.68 37.32 2.693 25 2.693S2.693 12.681 2.693 25c0 7.591 3.795 14.293 9.588 18.321z" />
		<path fill="#76d8f8" d="M37.225 6.29a22.196 22.196 0 00-12.14-3.597c-10.049 0-18.543 6.646-21.334 15.781L37.225 6.29z" />
		
		<g fill="#444" stroke="#444">
			<circle cx="25" cy="25" r="2.332" />
			<path d="M32.236 20.822c.906-3.366.677-6.01-.846-6.889-1.201-.695-2.998-.16-5.051 1.507-.446.362-.894.775-1.339 1.221a17.448 17.448 0 00-1.339-1.221c-2.052-1.667-3.846-2.202-5.05-1.507-1.523.879-1.752 3.523-.846 6.889-3.368.898-5.543 2.419-5.543 4.177 0 1.76 2.18 3.282 5.554 4.181a17.556 17.556 0 00-.385 1.759c-.417 2.611.016 4.432 1.22 5.127.344.198.736.297 1.169.297 1.081 0 2.415-.613 3.881-1.804.446-.362.894-.775 1.339-1.221.445.446.893.859 1.339 1.221 1.467 1.19 2.8 1.804 3.882 1.804.433 0 .825-.099 1.169-.297 1.204-.695 1.638-2.516 1.22-5.127a17.556 17.556 0 00-.385-1.759c3.375-.898 5.555-2.42 5.555-4.181-.001-1.757-2.176-3.278-5.544-4.177zm-5.582-4.994c1.364-1.108 2.609-1.689 3.57-1.689.344 0 .651.075.915.227 1.293.747 1.422 3.219.586 6.333a26.517 26.517 0 00-3.892-.616 26.597 26.597 0 00-2.485-3.064 17.6 17.6 0 011.306-1.191zm2.277 11.442a31.748 31.748 0 01-1.367 2.163 31.419 31.419 0 01-5.129 0 31.433 31.433 0 01-2.557-4.437 32.22 32.22 0 012.557-4.429 31.419 31.419 0 015.129 0 32.423 32.423 0 012.557 4.429 31.643 31.643 0 01-1.19 2.274zm1.461-1.682a25.668 25.668 0 011.206 3.212 25.935 25.935 0 01-3.389.57c.398-.595.786-1.21 1.156-1.85.374-.649.712-1.293 1.027-1.932zM25 32.621a25.525 25.525 0 01-2.187-2.658c.711.047 1.438.076 2.187.076.749 0 1.476-.029 2.187-.076A25.42 25.42 0 0125 32.621zm-3.209-3.251a25.935 25.935 0 01-3.389-.57 25.67 25.67 0 011.205-3.213c.315.639.653 1.283 1.028 1.932a33 33 0 001.156 1.851zm-2.18-4.963a26.06 26.06 0 01-1.198-3.21 25.981 25.981 0 013.379-.568 33 33 0 00-1.156 1.851 32.99 32.99 0 00-1.025 1.927zM25 17.378c.746.784 1.48 1.678 2.187 2.658A33.757 33.757 0 0025 19.96c-.749 0-1.476.03-2.187.076A25.63 25.63 0 0125 17.378zm4.364 5.102c-.37-.64-.758-1.256-1.156-1.851a26.14 26.14 0 013.378.567 26.11 26.11 0 01-1.198 3.209 32.33 32.33 0 00-1.024-1.925zM18.86 14.366c.997-.575 2.631-.043 4.485 1.462.435.353.871.756 1.306 1.191a26.407 26.407 0 00-2.485 3.064 26.384 26.384 0 00-3.892.616c-.836-3.113-.706-5.586.586-6.333zM12.721 25c0-1.493 2.077-2.842 5.191-3.675a26.382 26.382 0 001.413 3.679 26.548 26.548 0 00-1.407 3.672c-3.117-.833-5.197-2.182-5.197-3.676zm10.625 9.171c-1.854 1.506-3.489 2.039-4.485 1.462-.997-.575-1.353-2.258-.976-4.614a17.08 17.08 0 01.377-1.721c1.183.285 2.494.497 3.904.619a26.511 26.511 0 002.485 3.064c-.434.435-.871.837-1.305 1.19zm8.77-3.152c.376 2.356.021 4.039-.977 4.614-1.002.576-2.634.043-4.485-1.462a17.19 17.19 0 01-1.306-1.191 26.407 26.407 0 002.485-3.064 26.513 26.513 0 003.905-.619c.16.593.29 1.17.378 1.722zm-.034-2.343a26.5 26.5 0 00-1.407-3.672 26.508 26.508 0 001.413-3.679c3.115.833 5.192 2.182 5.192 3.675-.001 1.494-2.08 2.844-5.198 3.676z" stroke-width="0.25" />
			<path d="M25 1.443C12.011 1.443 1.443 12.011 1.443 25 1.443 37.99 12.01 48.557 25 48.557a1.25 1.25 0 000-2.5C13.389 46.057 3.943 36.611 3.943 25S13.389 3.943 25 3.943c11.61 0 21.057 9.446 21.057 21.057 0 1.877-.247 3.738-.733 5.531a1.249 1.249 0 102.412.654c.545-2.006.821-4.087.821-6.185C48.557 12.011 37.989 1.443 25 1.443z" stroke-width="0"/>
			<path d="M25 7.369C15.278 7.369 7.369 15.278 7.369 25c0 9.722 7.909 17.631 17.631 17.631 9.722 0 17.631-7.909 17.631-17.631 0-9.722-7.909-17.631-17.631-17.631zm0 34.762c-9.446 0-17.131-7.686-17.131-17.131S15.554 7.869 25 7.869 42.131 15.554 42.131 25 34.446 42.131 25 42.131z" stroke-width="0.25" />
		</g>
	</g>
</svg>
