<svg xmlns="http://www.w3.org/2000/svg" width="543.493" height="543.493"><defs><linearGradient id="b" x1="0" x2="1" y1="0" y2="0" gradientTransform="scale(2727.57 -2727.57) rotate(45 1.302 .395)" gradientUnits="userSpaceOnUse" spreadMethod="pad"><stop offset="0" stop-color="#bf691d"/><stop offset=".883" stop-color="#fac10e"/><stop offset="1" stop-color="#fac10e"/></linearGradient><clipPath id="a" clipPathUnits="userSpaceOnUse"><path d="M2135.69 2.371L1397.56 737.31c37.5-34.899 87.78-56.258 143.05-56.258h995c115.97 0 210 94.027 210 210V3029.16c0 55.04-21.17 105.12-55.81 142.56l1372.02-1375.91C3945.74 816.121 3134.91 49.48 2135.69 2.371"/></clipPath></defs><path fill="#fac10e" d="M543.495 271.747c0 150.082-121.667 271.746-271.746 271.746C121.665 543.493 0 421.83 0 271.747 0 121.664 121.665-.001 271.75-.001c150.078 0 271.745 121.665 271.745 271.748"/><g clip-path="url(#a)" transform="matrix(.13333 0 0 -.13333 0 543.493)"><path fill="url(#b)" d="M2135.69 2.371L1397.56 737.31c37.5-34.899 87.78-56.258 143.05-56.258h995c115.97 0 210 94.027 210 210V3029.16c0 55.04-21.17 105.12-55.81 142.56l1372.02-1375.91C3945.74 816.121 3134.91 49.48 2135.69 2.371"/></g><path fill="#2d4a4d" d="M366.081 424.687c0 15.463-12.537 28-28 28H205.415c-15.464 0-28-12.537-28-28V139.605c0-15.464 12.536-28 28-28H338.08c15.463 0 28 12.536 28 28v285.082"/><path fill="#fac10e" d="M272.104 262.697v53.596l32.396 10.48-32.396 63.838v-53.119l-33.11-10.837 33.11-63.958"/><path fill="#d0ccc3" d="M312.415 118.23v-15.425c0-6.626-5.374-12-12-12H243.08c-6.628 0-12 5.374-12 12v15.424h81.334"/><path fill="#eb3044" d="M338.081 111.605H205.415c-15.464 0-28 12.536-28 28v59.202H366.08v-59.202c0-15.464-12.537-28-28-28"/><path fill="#263a3c" d="M338.081 452.687h-66.333V337.375l.356.117v53.119l32.396-63.838-32.396-10.48v-53.596l-.356.69v-64.58h94.333v225.88c0 15.463-12.537 28-28 28"/><path fill="#c49b19" d="M272.104 390.61v-53.118l-.356-.117v-73.988l.356-.69v53.596l32.396 10.48-32.396 63.838"/><path fill="#a2a099" d="M312.415 111.605h-40.667v-20.8h28.667c6.626 0 12 5.374 12 12v8.8"/><path fill="#bd2a37" d="M366.081 198.807h-94.333v-87.202h66.333c15.463 0 28 12.536 28 28v59.202"/><path fill="#526e71" d="M205.928 452.687h13.045v-253.88h-13.045z"/><path fill="#ef4d66" d="M205.928 198.807h13.045v-87.202h-13.045z"/></svg>