<svg xmlns="http://www.w3.org/2000/svg" xmlns:xlink="http://www.w3.org/1999/xlink" width="24" height="24" preserveAspectRatio="xMidYMid meet" viewBox="0 0 24 24">
<style>
    #statemachine {
      fill: black;
    }
    @media (prefers-color-scheme: dark) {
      #statemachine {
        fill: white;
      }
    }
  </style>
	<path id="statemachine" d="M6.27 17.05A2.991 2.991 0 0 1 4 22c-1.66 0-3-1.34-3-3s1.34-3 3-3c.18 0 .36 0 .53.05l3.07-5.36l-1.74-.99l4.09-1.12l1.12 4.09l-1.74-.99l-3.06 5.37M20 16c-1.3 0-2.4.84-2.82 2H11v-2l-3 3l3 3v-2h6.18c.42 1.16 1.52 2 2.82 2c1.66 0 3-1.34 3-3s-1.34-3-3-3m-8-8c.18 0 .36 0 .53-.05l3.07 5.36l-1.74.99l4.09 1.12l1.12-4.09l-1.74.99l-3.06-5.37A2.991 2.991 0 0 0 12 2c-1.66 0-3 1.34-3 3s1.34 3 3 3z" />
</svg>
