<svg xmlns="http://www.w3.org/2000/svg" viewBox="0 0 512 512"><path fill="#0078cf" d="M512 256c0 23.155-3.072 45.599-8.84 66.936-13.479 49.894-41.66 93.748-79.621 126.631C378.64 488.469 320.073 512 256 512 114.615 512 0 397.385 0 256S114.615 0 256 0s256 114.615 256 256z"/><g fill="#f2f2f2"><path d="M503.16 322.936c-13.479 49.894-41.66 93.748-79.621 126.631-3.709.199-7.586.293-11.609.293-53.154 0-82.693-33.217-97.374-58.138l48.191-28.954s16.394 34.837 47.125 34.837c30.741 0 43.039-10.25 43.039-33.813 0-28.693-99.391-38.933-114.761-88.116-15.37-49.183 5.12-118.868 76.852-113.737 44.826 3.197 70.04 25.213 82.651 41.273l-47.815 34.544c-10.25-29.706-52.255-29.706-60.458-5.12-8.192 24.597 19.466 38.933 62.506 53.279 22.111 7.367 39.895 20.961 51.274 37.021zM300.943 169.786H83.106v51.416h79.829V444.45h58.18V221.202h79.828z"/></g></svg>